<?xml version="1.0" encoding="UTF-8"?><svg id="a" xmlns="http://www.w3.org/2000/svg" viewBox="0 0 335.38 170.45"><defs><style>.b{fill:#fcda00;}.c{fill:#002454;}</style></defs><path class="b" d="M335.38,147.04c-26.92,14.3-59.3,22.48-92.71,23.33-3.92.1-7.84.1-11.78,0-21.29-.55-42.78-4.11-63.34-10.95-.33-.11-1.54-.52-1.81-.61-55.92-18.68-118.78-12.95-165.75,11.14V0h335.38v147.04Z"/><path class="c" d="M292.76,55.96s2.17.77,2.99,2.06,1.12,3.94,1.23,6.73-.27,7.23-1.33,10.48-3.03,2.15-3.98,1.69-2.11-2.05-1.39-4.82,1.44-5.79,1.15-9.35-1.39-5.15-1.53-7.03c0,0,.27-1.12,2.86.24Z"/><path class="c" d="M279.11,31.37c-25.17,0-45.57,20.4-45.57,45.57s20.4,45.57,45.57,45.57,45.57-20.4,45.57-45.57-20.4-45.57-45.57-45.57ZM306.6,80.75c-.64,2.66-1.93,10.1-10.92,18.2-2.8,2.52-5,4.23-6.24,6.06-2.08,3.07-2.04,5.59-1.96,6.32.13,1.16.41,1.75.67,2.54.14.41-.07.7-.07.7,0,0-1.25-.46-2.73-2.21-1.49-1.75-2.28-4-4.79-5.46-2.51-1.45-4.98-1.98-6.34-2.41-1.36-.43-6.63-1.67-11.41-5.74s-6.31-9.4-6.19-13.79c.12-4.39,2.14-8.35,7.04-10.69,1.98-.94,3.75-1.3,5.51-1.42,1.76-.13-.04-1.24-.95-1.52-.61-.19-2.02-.57-3.88-.62-1.85-.05-3.88.1-7.72,2.01,0,0-1.22-.1-1.03-1.12.19-1.02.52-4.8,3.88-9.58,1.8-2.56,2.44-2.64,3.02-2.51.62.14,2.66,2.82,5.09,3.02.9.07.91-.37.91-.37,0,0,.13-.31-.51-1.29-.64-.98-1.74-2.97-1.81-4.73-.07-1.76.35-4.39,1.55-4.79,1.2-.4,3.88,1.9,4.77,5.01.89,3.12.23,4.7.23,4.7,0,0-.05.55.43.64.48.09,3.12-1.05,3.46-3.49s.07-3.51-.63-4.55-2.21-2.4-2.57-2.47c0,0,.08-.33.83-.38.77-.06,1.56.17,2.24.49.67.32,2.42,1.23,4.89,1.41,2.47.19,4.46-.14,4.68-.49.22-.35.72-1.05.03-1.85-.69-.8-2.5-.57-3.96-1.86-1.46-1.3-2.06-.95-3.03-.92-.97.03-2.53.07-3.71-.67-1.18-.74-2.68-.41-4.32-.04-1.63.36-4.08.86-6.38,2.09-2.3,1.23-3.77,2.16-4.64,2.84-.87.68-1.8,1.57-2.63,1.13,0,0-.05-.62.15-1.28s.01-1.37-.87-1.67-.71-.64-.71-.64c0,0,.04-.63,1.9-.45,1.53.15,2.23.27,2.63-.08.4-.36.36-.97-.38-1.35s-3.11-1.12-3.12-1.72c0-.6,1.8-.39,2.36-.32.56.07,2.07.33,3.36.81,1.29.49,2.93.24,1.65-1.23-.6-.67-2.32-1.46-3.52-1.78-1.2-.32-1.14-1.08.16-.98,1.3.1,2.69.15,3.81.6,1.11.46,2.66,1.45,3.65.89,0,0-.31-1.4-2.88-2.27-2.57-.88-2.25-1.33-1.45-1.39.81-.07,2.5-.38,6.64,1.84,1.87,1,2.81,1.86,4.1,1.36,1.67-.65,2.24-.82,2.66-.84.82-.04,1.52.28,1.86.5.34.22.77.85,1.38,1,.62.14,2.12.22,3.34.3s2.3,1.03,2.84,1.75c.54.72,1.53,2.7,3.44,3.16,1.91.46,3.93,2.53,4.62,3.8s1.46,3.41,2.14,4.44c.68,1.03,4.4,2.38,7.56,8.56,3.16,6.18,2.48,12.16,1.84,14.82Z"/><path class="c" d="M109.57,106.17c-6.92,12.41-13.39,16.68-22.47,16.68-11.46,0-23.04-9.88-23.04-32.7,0-19.74,10.33-32.29,23.38-32.29,19.75,0,21.22,23.22,21.56,30.42h-28.6c.34,11.35,2.84,24.96,13.62,24.96,6.7,0,10.67-5.87,12.83-8.94l2.73,1.87ZM95.04,83.35c-.11-4.14-.11-11.08-1.02-15.08-.68-2.94-2.15-6.27-6.13-6.27-4.2,0-8.06,2.93-8.06,21.35h15.21Z"/><path class="c" d="M141.64,64.53h-10.67v40.98c0,2.13-.11,7.6,4.43,7.6,3.29,0,5.22-4.13,6.47-6.93l2.84,1.46c-2.38,5.74-6.47,14.95-16.69,14.95-12.26,0-12.71-11.21-12.83-14.01v-44.04h-5.9v-3.6c6.01-6,11.12-11.06,18.84-24.01h2.84v22.55h10.67v5.06Z"/><path class="c" d="M230.57,107.79c-1.14,2.55-2.73,6.49-5.66,6.68-2.34-.1-2.38-2.41-2.38-3.19v-34.83c0-12.54-10.1-18.28-22.7-18.28-5.34,0-9.74.86-13.13,2.38-1.44-1.56-3.55-2.69-6.6-2.69-7.37,0-12.48,8.01-14.87,12.14h-.23v-10.54h-21.45v3.2c3.4.53,6.13,1.2,6.13,7.87v39.23c0,6.67-2.49,7.21-6.13,8.01v3.2h30.19v-3.2c-6.92-.4-8.28-2.41-8.28-10.54v-25.21c0-9.74,5.47-12.04,7.16-11.9,7.37.62,3.95,6.79,9.08,9.94.35.22.69.36,1.01.45,1.67.75,3.36.56,3.98.47,4.6-.66,7.89-5.25,6.71-9.46-1.11-3.96.26-8.67,4.96-9.35,8.31-1.21,8.62,5.21,8.62,12.02v9.74c-16.12,5.73-30.53,11.07-30.53,24.95,0,10.14,7.03,14.28,12.48,14.28,2.72,0,10.67-.67,18.04-9.34.68,3.74,1.59,9.34,9.54,9.34.36,0,.71-.01,1.05-.03h.06c9.55,0,13.37-8.61,15.6-13.97l-2.66-1.37ZM206.86,107.63c-1.59,2.14-4.2,5.74-8.06,5.74-4.09,0-5.79-4.8-5.79-8.94,0-11.61,11.23-15.48,13.85-16.15v19.35Z"/><path class="c" d="M67.26,120.98H25.42v-3.44c8.56-.82,11.37-1.11,11.37-12.68V36.97c-8.2.55-20.27-1.09-22.62,17.84h-3.4l.35-22.24h70.33l.23,22.24h-3.4c-2.1-18.77-14.42-17.28-22.51-17.84v67.88c0,11.72,2.81,11.99,11.49,12.68v3.44Z"/></svg>