<svg xmlns="http://www.w3.org/2000/svg" width="216" height="108" viewBox="0 0 216 108" fill="none"><script xmlns="" id="datalayer-checker-script"/>
<g clip-path="url(#clip0_503_6143)">
    <path fill-rule="evenodd" clip-rule="evenodd" d="M183.844 24.424C172.487 39.3303 183.966 51.3592 183.966 51.3592H183.982C195.339 36.4529 183.86 24.424 183.86 24.424H183.844ZM80.6527 61.6554C80.5382 61.8462 80.4161 61.9836 80.2864 62.0752C80.1566 62.1668 79.9963 62.2126 79.8055 62.2126C79.5918 62.2126 79.3476 62.1057 79.0575 61.892C78.7675 61.6783 78.4088 61.4493 77.9813 61.1898C77.5539 60.9303 77.0349 60.7013 76.4319 60.4876C75.829 60.2739 75.0963 60.167 74.2338 60.167C73.4247 60.167 72.7073 60.2739 72.0891 60.4952C71.4708 60.7166 70.9518 61.0066 70.532 61.3806C70.1122 61.7546 69.7993 62.1973 69.5856 62.701C69.3719 63.2048 69.265 63.7543 69.265 64.342C69.265 65.09 69.4482 65.7083 69.8146 66.2044C70.1809 66.7005 70.6694 67.1203 71.2724 67.4637C71.8753 67.8148 72.5623 68.1125 73.3332 68.372C74.104 68.6239 74.8902 68.891 75.6916 69.1658C76.493 69.4405 77.2792 69.7458 78.05 70.0893C78.8133 70.4328 79.5002 70.8678 80.1108 71.3868C80.7138 71.9135 81.2023 72.5546 81.5686 73.3102C81.935 74.0735 82.1182 75.0046 82.1182 76.119C82.1182 77.2944 81.9197 78.3935 81.5228 79.4239C81.1259 80.4543 80.5382 81.3473 79.775 82.1105C79.0117 82.8738 78.0653 83.4691 76.951 83.9042C75.8366 84.3392 74.5696 84.5606 73.1423 84.5606C71.3945 84.5606 69.8146 84.2476 68.3873 83.6141C66.9676 82.9806 65.7464 82.1334 64.7389 81.0572L65.7846 79.3323C65.8838 79.1949 66.0059 79.0804 66.151 78.9888C66.296 78.8972 66.4563 78.8514 66.6242 78.8514C66.7845 78.8514 66.9753 78.9201 67.1737 79.0499C67.3798 79.1796 67.6164 79.3475 67.8759 79.546C68.1354 79.7444 68.4407 79.9658 68.7765 80.2024C69.1124 80.439 69.494 80.6603 69.9291 80.8588C70.3565 81.0572 70.8526 81.2251 71.3945 81.3549C71.944 81.4846 72.5623 81.5533 73.2492 81.5533C74.1117 81.5533 74.8749 81.4389 75.5466 81.2022C76.2182 80.9656 76.7907 80.6298 77.2563 80.2024C77.7218 79.775 78.0806 79.256 78.3324 78.6606C78.5843 78.0653 78.7064 77.3936 78.7064 76.6609C78.7064 75.8519 78.5233 75.1878 78.1569 74.6688C77.7905 74.1498 77.3021 73.7224 76.7067 73.3713C76.1038 73.0202 75.4245 72.7302 74.6459 72.4859L74.3489 72.392L73.9132 72.2547C73.3785 72.0864 72.8366 71.9157 72.2875 71.7379C71.4937 71.4861 70.7076 71.1884 69.9291 70.8526C69.1582 70.5167 68.4712 70.0817 67.8683 69.5398C67.2729 69.0055 66.7845 68.3338 66.4181 67.5324C66.0517 66.731 65.8686 65.7311 65.8686 64.5481C65.8686 63.6017 66.0517 62.6858 66.4181 61.8004C66.7845 60.915 67.3187 60.1289 68.0286 59.442C68.7307 58.755 69.6009 58.2055 70.6312 57.7933C71.6616 57.3812 72.8447 57.1751 74.1727 57.1751C75.6687 57.1751 77.0349 57.4117 78.2637 57.8849C79.4926 58.3581 80.5764 59.0451 81.5076 59.9457L80.6298 61.6707L80.6527 61.6554ZM29.2172 84.2705L37.5777 57.4804H37.5825V57.4651L37.5777 57.4804H34.7584C34.4455 57.4804 34.186 57.5644 33.9647 57.7399C33.751 57.9155 33.6059 58.1139 33.5449 58.3352L27.9884 76.9662C27.8968 77.2868 27.8205 77.6379 27.7442 78.0119C27.6678 78.3859 27.5992 78.7751 27.5381 79.1873C27.4541 78.7827 27.3625 78.3859 27.271 78.0119C27.1717 77.6379 27.0725 77.2944 26.958 76.9662L20.6688 58.3352C20.5696 58.0834 20.417 57.8773 20.2185 57.717C20.0201 57.5567 19.7529 57.4728 19.4324 57.4728H18.3867C18.0738 57.4728 17.8143 57.5644 17.5929 57.7399C17.3716 57.9231 17.2266 58.1139 17.1502 58.3276L10.8458 76.9586C10.7389 77.2868 10.6321 77.6455 10.5405 78.0348C10.4413 78.4316 10.3497 78.8438 10.2657 79.2789C10.2064 78.903 10.1357 78.5443 10.0683 78.2027L10.0367 78.0424C9.95279 77.6531 9.86883 77.2944 9.78488 76.9586L4.24367 58.3276C4.18261 58.0757 4.04523 57.8697 3.82389 57.7094C3.61018 57.5491 3.33541 57.4651 3.01484 57.4651H0L8.3576 84.2705H11.609L18.4401 63.823C18.5088 63.6246 18.5699 63.4109 18.631 63.1895C18.6996 62.9682 18.7607 62.7316 18.8218 62.4797C18.8523 62.6056 18.8828 62.7277 18.9124 62.846C18.942 62.9643 18.9706 63.0788 18.9973 63.1895C19.0507 63.4109 19.1118 63.6246 19.1729 63.823L25.9658 84.2705H29.2172ZM59.9763 84.2705L59.9992 81.3167H47.0849V72.1654H57.5262V69.3261H47.0849V60.4189H59.9763V57.4651H43.4595V84.2705H59.9763ZM98.5509 60.5105H107.229V57.4651H86.2397V60.5105H94.9408V84.2705H98.5509V60.5105ZM116.701 60.4189V69.7916H127.722V72.7454H116.701V84.2705H113.068V57.4651H129.592V60.4189H116.701ZM143.957 63.4109L148.162 74.3177V74.3254H138.156L142.362 63.4338C142.644 62.7621 142.911 61.9149 143.171 60.9074C143.293 61.3959 143.422 61.8539 143.56 62.2813C143.705 62.7087 143.835 63.0903 143.957 63.4109ZM152.917 84.2705H155.726L155.718 84.2629L144.995 57.4575H141.331L130.615 84.2629H133.424C133.737 84.2629 133.996 84.1789 134.21 84.0034C134.416 83.8355 134.561 83.6294 134.637 83.4081L137.149 76.9357H149.177L151.681 83.4081C151.78 83.6599 151.933 83.866 152.131 84.0263C152.33 84.1866 152.597 84.2705 152.917 84.2705ZM176.341 81.2251V84.2705H161.13V57.4651H164.74V81.2251H176.341ZM182.211 57.4651H185.844V84.2705H182.211V57.4651ZM208.795 74.3177L204.589 63.4109C204.467 63.0903 204.338 62.7087 204.193 62.2813C204.055 61.8539 203.925 61.3959 203.803 60.9074C203.544 61.9149 203.277 62.7621 202.994 63.4338L198.789 74.3254H208.795V74.3177ZM216.351 84.2705H213.542C213.222 84.2705 212.955 84.1866 212.756 84.0263C212.558 83.866 212.405 83.6599 212.306 83.4081L209.802 76.9357H197.774L195.262 83.4081C195.186 83.6294 195.041 83.8355 194.835 84.0034C194.621 84.1789 194.362 84.2629 194.049 84.2629H191.24L201.956 57.4575H205.62L216.343 84.2629L216.351 84.2705ZM188.042 51.2218C188.042 51.2218 188.676 34.5982 207.284 32.3695H207.299C207.299 32.3695 206.665 49.0007 188.057 51.2294H188.042V51.2218ZM160.435 32.3924C179.043 34.6211 179.677 51.2447 179.677 51.2447V51.2599H179.662C161.061 49.0312 160.435 32.4076 160.435 32.4076V32.3924Z" fill="#C29E63"/>
</g>
<defs>
    <clipPath id="clip0_503_6143">
        <rect width="216" height="107.618" fill="white"/>
    </clipPath>
</defs>
</svg>